# xmcd CD database file
#
# Track frame offsets:
#	150
#	19782
#	48415
#	68985
#	101647
#	124202
#	146927
#	175897
#	198587
#	223282
#
# Disc length: 3188 seconds
#
# Revision: 0
# Processed by: cddbd v1.4PL0 Copyright (c) Steve Scherf et al.
# Submitted via: CDex 1.51
#
DISCID=a10c720a
DTITLE=Ralph MacDonald - Port Pleasure
DYEAR=1998
DGENRE=Jazz
TTITLE0=High Tide
TTITLE1=Catch Of The Day
TTITLE2=Can't Let Go
TTITLE3=Seabreeze
TTITLE4=The Vive
TTITLE5=Splash
TTITLE6=I Wanna Hold You Tonight
TTITLE7=Rio Sunshine
TTITLE8=Watching You Watching Me
TTITLE9=Believe
EXTD=YEAR: 1998
EXTT0=
EXTT1=
EXTT2=
EXTT3=
EXTT4=
EXTT5=
EXTT6=
EXTT7=
EXTT8=
EXTT9=
PLAYORDER=
